<?xml version="1.0" encoding="UTF-8" standalone="no"?>
<svg xmlns:dc="http://purl.org/dc/elements/1.1/"
  xmlns:cc="http://creativecommons.org/ns"
  xmlns:rdf="http://www.w3.org/1999/02/22-rdf-syntax-ns"
  xmlns:svg="http://www.w3.org/2000/svg"
  xmlns="http://www.w3.org/2000/svg" viewBox="0 0 120 60" height="60" width="120" xml:space="preserve" id="svg2" version="1.1">
  <metadata id="metadata8">
    <rdf:RDF>
      <cc:Work rdf:about="">
        <dc:format>image/svg+xml</dc:format>
        <dc:type rdf:resource="http://purl.org/dc/dcmitype/StillImage" />
      </cc:Work>
    </rdf:RDF>
  </metadata>
  <defs id="defs6">
    <clipPath id="clipPath14" clipPathUnits="userSpaceOnUse">
      <path id="path12" d="M 0,0 H 482 V 680 H 0 Z" />
    </clipPath>
  </defs>
  <g clip-path="url(#clipPath14)" transform="matrix(1.33,0,0,-1.33,-462,129)" id="g10">
    <g transform="translate(347.668,53.435)" id="g54">
      <text id="text58" style="font-variant:normal;font-weight:normal;font-size:8px;font-family:DIN;-inkscape-font-specification:DIN-Regular;writing-mode:lr-tb;fill:white;fill-opacity:1;fill-rule:nonzero;stroke:none" transform="matrix(1,0,0,-1,56,32)">
        <tspan id="tspan56" y="0" x="0 2.37 6.72 11.36 15.69 20.34 24.53 28.86">language</tspan>
      </text>
    </g>
    <g transform="translate(347.668,53.435)" id="g60">
      <text id="text64" style="font-variant:normal;font-weight:normal;font-size:8px;font-family:DIN;-inkscape-font-specification:DIN-Regular;writing-mode:lr-tb;fill:white;fill-opacity:1;fill-rule:nonzero;stroke:none" transform="matrix(1,0,0,-1,56,23)">
        <tspan id="tspan62" y="0" x="0 4.12 8.18 10.36 14.74 19.39 23.45">science</tspan>
      </text>
    </g>
    <g transform="translate(347.668,53.435)" id="g66">
      <text id="text70" style="font-variant:normal;font-weight:normal;font-size:8px;font-family:DIN;-inkscape-font-specification:DIN-Regular;writing-mode:lr-tb;fill:white;fill-opacity:1;fill-rule:nonzero;stroke:none" transform="matrix(1,0,0,-1,56,14)">
        <tspan id="tspan68" y="0" x="0 4.35 7.43 11.66 15.49">press</tspan>
      </text>
    </g>
    <path id="path72" style="fill:white;fill-opacity:1;fill-rule:nonzero;stroke:none" d="m 377.25,53.5 h 7.5 v 42 h -7.5 z" />
    <path id="path74" style="fill:white;fill-opacity:1;fill-rule:nonzero;stroke:none" d="m 385.75,53.5 h 7.5 v 34 h -7.5 z" />
    <path id="path76" style="fill:white;fill-opacity:1;fill-rule:nonzero;stroke:none" d="m 394.25,53.5 h 7.5 v 42 h -7.5 z" />
    <path id="path78" style="fill:white;fill-opacity:1;fill-rule:nonzero;stroke:none" d="m 368.75,53.5 h 7.5 v 42 h -7.5 z" />
    <path id="path80" style="fill:white;fill-opacity:1;fill-rule:nonzero;stroke:none" d="m 361.75,96 -14,-40 7,-2.5 14,40 -7,2.5" />
  </g>
</svg>
